# xmcd
#
# Track frame offsets:
#	182
#	15332
#	29635
#	43665
#	66245
#	82355
#	119782
#	137570
#	156145
#	168215
#	185330
#	200632
#
# Disc length: 2905 seconds
#
# Revision: 0
# Processed by: cddbd v1.5.2PL0 Copyright (c) Steve Scherf et al.
# Submitted via: EasyCDDAExtractor 15.3.0.1
#
DISCID=aa0b570c
DTITLE=Various Artist - The Motown Funk Collection
DYEAR=1997
DGENRE=Funk
TTITLE0=Commodores - Slippery When Wet
TTITLE1=Rick James - You and I
TTITLE2=Yvonne Fair - Funky Music Sho Nuff turns me on
TTITLE3=Bonnie Pointer - Ah Shoot
TTITLE4=Rose Banks - Whole New Thing
TTITLE5=Marvin Gaye - A Funky Space Reincarnation
TTITLE6=Rick James - Bustin' Out
TTITLE7=Dazz Band - Let it Whip
TTITLE8=Jackson 5 - How Funky is your Chicken
TTITLE9=Rose Banks - I Get High on you
TTITLE10=Yvonne Fair - Love ain't no toy
TTITLE11=21st Creation - Funk Machine
EXTD=
EXTT0=
EXTT1=
EXTT2=
EXTT3=
EXTT4=
EXTT5=
EXTT6=
EXTT7=
EXTT8=
EXTT9=
EXTT10=
EXTT11=
PLAYORDER=
